<svg width="87" height="87" viewBox="0 0 87 87" fill="none" xmlns="http://www.w3.org/2000/svg">
<g clip-path="url(#clip0_47_47)">
<path d="M43.5 87C67.5244 87 87 67.5244 87 43.5C87 19.4756 67.5244 0 43.5 0C19.4756 0 0 19.4756 0 43.5C0 67.5244 19.4756 87 43.5 87Z" fill="#262626"/>
<path d="M43.79 47.5599C54.5209 47.5599 63.22 38.8608 63.22 28.1299C63.22 17.3991 54.5209 8.69995 43.79 8.69995C33.0591 8.69995 24.36 17.3991 24.36 28.1299C24.36 38.8608 33.0591 47.5599 43.79 47.5599Z" fill="#D07B47"/>
<path d="M67.1408 54.52H22.1792C15.022 54.52 8.7 58.0986 4.9068 63.568C12.1626 77.488 26.7148 87 43.5 87C60.2852 87 76.0902 76.6528 82.9864 61.741C79.1352 57.3156 73.4628 54.52 67.135 54.52H67.1408Z" fill="#D07B47"/>
</g>
<defs>
<clipPath id="clip0_47_47">
<rect width="87" height="87" fill="white"/>
</clipPath>
</defs>
</svg>
